<svg viewBox="-351 153 256 256" fill="#000000" xmlns="http://www.w3.org/2000/svg">
  <path d="M-131.1,268.3h-78.6l21.3-61.3l0,0c1.8-4.4,2.8-9.2,2.8-14.2c0-20.6-16.7-37.3-37.3-37.3s-37.3,16.8-37.3,37.3 c0,5,1,9.8,2.8,14.2l0,0l21.3,61.3h-78.8L-348.4,400h250.9L-131.1,268.3z M-222.9,175c9.8,0,17.9,8,17.9,17.9 c0,9.9-8,17.9-17.9,17.9s-17.9-8-17.9-17.9C-240.9,183-232.8,175-222.9,175z M-310.2,280c0.4,0.2,0.9,0.3,1.4,0.3 c1,0,1.9-0.4,2.7-1.1c0.7-0.6,1.1-1.6,1.1-2.7c0-0.3,0-0.5-0.1-0.7h71.6l10.7,30.8l10.7-30.8h75.4l28.7,113.3 c-0.6,0.1-1.3,0.4-1.7,1c-0.7,0.7-1.1,1.6-1.1,2.7l0,0h-228L-310.2,280z M-207.8,367.9c-1.9-0.5-4.1,0.5-4.6,2.6 c-0.5,2,0.5,4.1,2.6,4.6c0.3,0.1,0.7,0.1,1.1,0.1c1.6,0,3.1-1.1,3.6-2.7C-204.7,370.5-205.9,368.5-207.8,367.9z M-187.8,371.8 c-2-0.3-4,1-4.4,3c-0.3,2,1,4,3,4.4l0,0c0.2,0,0.4,0.1,0.6,0.1c1.8,0,3.3-1.3,3.6-3.1C-184.4,374.1-185.8,372.2-187.8,371.8z M-223.5,311.6c-4.4,0.2-7.8,4-7.7,8.3c0.2,4.3,3.7,7.7,8,7.7c0.1,0,0.2,0,0.3,0c4.5-0.2,7.9-4,7.7-8.3 C-215.4,314.9-219.2,311.5-223.5,311.6z M-126.6,384.4c-2-0.4-4.1,0.9-4.5,2.9s0.9,4.1,2.9,4.5c0.2,0,0.5,0.1,0.9,0.1 c1.7,0,3.3-1.2,3.6-3C-123.3,386.8-124.5,384.8-126.6,384.4z M-227,343.9c0.3,0,0.5,0.1,0.9,0.1c1.7,0,3.3-1.2,3.6-3 c0.4-2-0.9-4.1-2.9-4.5s-4.1,0.9-4.5,2.9C-230.3,341.4-229,343.3-227,343.9z M-146.9,380c-2-0.4-4.1,0.9-4.5,2.9s0.9,4.1,2.9,4.4 c0.2,0,0.5,0.1,0.7,0.1c1.7,0,3.3-1.2,3.6-3C-143.6,382.5-145,380.4-146.9,380z M-167.3,375.8c-2-0.4-4.1,0.9-4.4,2.9 c-0.4,2,0.9,4,2.9,4.4c0.2,0.1,0.5,0.1,0.7,0.1c1.7,0,3.3-1.2,3.6-3C-164,378.2-165.3,376.2-167.3,375.8z M-270,285.7 c-2-0.2-4,1.2-4.2,3.2c-0.2,2,1.2,4,3.2,4.2c0.1,0,0.3,0,0.4,0c1.8,0,3.4-1.4,3.7-3.3C-266.5,287.7-268,285.9-270,285.7z M-290.2,282.6c-2-0.4-4.1,0.9-4.5,2.8c-0.4,2,0.9,4.1,2.8,4.5c0.3,0,0.5,0.1,0.9,0.1c1.7,0,3.2-1.2,3.6-2.9 C-286.9,285.1-288.2,283-290.2,282.6z M-228.3,303.6c1.4-1.6,1.2-4-0.3-5.2c-1.6-1.4-4-1.2-5.2,0.3c-1.4,1.6-1.2,4,0.3,5.2 c0.7,0.6,1.6,1,2.5,1C-230.2,304.8-229.1,304.4-228.3,303.6z M-249.1,289c-2-0.4-4.1,0.7-4.5,2.8c-0.4,2.1,0.7,4.1,2.8,4.5l0,0 c0.3,0.1,0.5,0.1,0.9,0.1c1.7,0,3.2-1.2,3.6-2.9C-245.9,291.5-247.1,289.6-249.1,289z M-227.7,357.2c-1.8,1-2.5,3.2-1.5,5 c0.6,1.3,1.9,1.9,3.3,1.9c0.6,0,1.2-0.1,1.8-0.4c1.8-1,2.5-3.2,1.5-5.1C-223.5,356.9-225.9,356.2-227.7,357.2z" style="fill: rgb(220, 38, 38);"/>
</svg>