<svg viewBox="0 0 256 256" xmlns="http://www.w3.org/2000/svg">
  <g style="stroke: none; stroke-width: 0; stroke-dasharray: none; stroke-linecap: butt; stroke-linejoin: miter; stroke-miterlimit: 10; fill: none; fill-rule: nonzero; opacity: 1;" transform="matrix(2.809999942779541, 0, 0, 2.809999942779541, 1.4065934419631958, 1.4065934419631958)">
    <path d="M 89.817 67.776 L 61.908 28.191 c -0.19 -0.271 -0.455 -0.423 -0.837 -0.424 c -0.331 0.006 -0.639 0.177 -0.819 0.456 l -9.747 15.017 L 34.273 21.057 c -0.19 -0.261 -0.479 -0.375 -0.819 -0.41 c -0.323 0.004 -0.625 0.164 -0.809 0.429 L 0.179 67.782 c -0.212 0.306 -0.237 0.704 -0.065 1.033 c 0.172 0.33 0.514 0.537 0.886 0.537 h 88 c 0.373 0 0.716 -0.208 0.888 -0.54 C 90.06 68.481 90.032 68.082 89.817 67.776 z M 33.487 23.37 l 16.26 22.221 c 0.193 0.265 0.467 0.425 0.835 0.409 c 0.328 -0.009 0.632 -0.179 0.811 -0.455 l 9.732 -14.993 l 11.796 16.731 l -6.634 2.793 c -2.165 0.913 -4.648 0.721 -6.647 -0.507 c -2.873 -1.763 -6.481 -1.832 -9.418 -0.182 l -1.013 0.569 c -2.511 1.411 -5.624 1.212 -7.933 -0.51 l -0.719 -0.536 c -2.849 -2.123 -6.586 -2.446 -9.755 -0.839 l -1.505 0.762 c -2.402 1.216 -5.265 1.015 -7.472 -0.527 l -3.818 -2.666 L 33.487 23.37 z M 2.913 67.353 l 13.952 -20.071 l 3.814 2.663 c 2.812 1.966 6.46 2.221 9.521 0.672 l 1.505 -0.763 c 2.486 -1.26 5.42 -1.009 7.655 0.659 l 0.719 0.536 c 1.638 1.221 3.593 1.841 5.557 1.841 c 1.564 0 3.134 -0.394 4.552 -1.19 l 1.013 -0.569 c 2.305 -1.297 5.138 -1.242 7.391 0.143 c 2.549 1.564 5.716 1.805 8.47 0.646 l 7.038 -2.963 l 12.971 18.397 H 2.913 z" style="stroke: none; stroke-width: 1; stroke-dasharray: none; stroke-linecap: butt; stroke-linejoin: miter; stroke-miterlimit: 10; fill-rule: nonzero; opacity: 1; fill: rgb(220, 38, 38);" transform=" matrix(1 0 0 1 0 0) " stroke-linecap="round"/>
  </g>
</svg>