<svg
              fill = "#dc2626"
              height="800px"
              width="800px"
              version="1.1"
              id="Capa_1"
              xmlns="http://www.w3.org/2000/svg"
              xmlns:xlink="http://www.w3.org/1999/xlink"
              viewBox="0 0 283.676 283.676"
              xml:space="preserve"
            >
              <g>
                <path
                  d="M281.412,208.999c0.556-2.902,2.433-5.602,2.252-8.539c-0.027-0.439-0.236-0.818-0.505-1.145
		c-0.239-3.104-2.165-12.204-6.884-9.462c-2.036,1.183-2.382,3.199-1.898,5.215c-42.881-43.544-85.841-87.244-130.502-128.946
		c-0.208-0.194-0.432-0.213-0.645-0.165c-0.136-3.811-0.413-7.681-1.08-11.26c-0.441-2.369-4.344-1.837-4.212,0.57
		c0.259,4.725,1.154,9.882,2.275,14.587c-0.099,0.145-0.192,0.294-0.29,0.439c-0.514-0.049-1.055,0.102-1.441,0.605
		c-20.729,27.017-41.496,54.081-64.848,78.916c-20.285,21.573-43.161,40.41-64.362,61.023c0.269-1.148,0.415-2.301,0.038-3.473
		c-0.506-1.573-1.951-2.823-3.663-2.837c-1.699-0.014-2.886,1.193-3.225,2.79c-0.305,1.432-0.395,2.95-0.423,4.473
		c-1.503,0.323-2.694,1.835-1.529,3.365c1.819,2.531,3.175,5.23,3.884,8.281c0.592,2.553,0.031,5.139,2.446,6.724
		c1.172,0.77,2.676,0.175,3.395-0.89c0.064-0.096,0.129-0.192,0.194-0.288c0.478-0.709,0.389-1.685,0-2.402
		c-0.058-0.107-0.116-0.214-0.174-0.321c-0.075-0.138-0.196-0.226-0.297-0.338c-0.183-0.847-0.43-1.667-0.686-2.484
		c-0.222-1.339-0.466-2.675-0.963-3.997c-0.363-0.964-0.826-1.868-1.29-2.771c0.536-0.126,1.046-0.559,1.119-1.174
		c0.048-0.406,0.17-0.81,0.269-1.215c44.077-36.202,81.625-77.465,116.937-121.715C97.101,136.557,71.25,182.212,38.987,223.35
		c-0.132,0.169-0.142,0.346-0.166,0.52c-1.619,0.917-1.33,3.892,0.935,3.809c26.722-0.983,53.351-2.641,80.018,0.183
		c0.464,0.049,0.837-0.114,1.125-0.378c0.559,0.212,1.185,0.134,1.573-0.333c8.042,2.234,16.95,1.302,25.198,1.251
		c12.045-0.074,24.228-0.038,36.215-1.28c1.019-0.105,1.479-0.948,1.422-1.726c0.026-0.009,0.057-0.01,0.084-0.019
		c0.085,0.365,0.183,0.725,0.267,1.091c0.197,0.847,0.876,1.141,1.54,1.066c0.2,0.425,0.526,0.787,1.125,0.829
		c10.06,0.699,19.617-0.936,29.593-1.726c9.939-0.788,19.846-0.231,29.783-0.6c0.485-0.018,0.79-0.377,0.943-0.782
		c1.129-0.366,1.993-1.959,0.996-3.225c-38.225-48.522-70.409-99.947-103.745-151.755c42.715,43.45,86.382,85.975,129.166,129.367
		c-1.177-0.295-2.404-0.414-3.574-0.332c-1.537,0.108-4.605,0.587-4.264,2.816c0.341,2.227,3.427,2.186,5.038,2.047
		c1.972-0.17,3.777-0.775,5.461-1.661c0.087,0.042,0.17,0.073,0.258,0.115c0.017,0.008,0.034-0.002,0.051,0.005l0.015,0.015
		c-0.818,2.035-1.198,4.352-1.413,6.353c-0.455,4.245-0.018,8.491,1.682,12.413c0.902,2.083,3.659,0.452,3.375-1.423
		C281.124,216.284,280.7,212.721,281.412,208.999z M6.505,210.238c-0.145,0.686-0.425,1.345-0.621,2.017
		c-0.208,0.71-0.308,1.332-0.333,1.96c-0.283-0.45-0.552-0.907-0.866-1.342c0.041-0.228,0.083-0.455,0.123-0.683
		c0.137-0.789,0.153-3.976,0.71-4.339C6.392,207.278,6.647,209.566,6.505,210.238z M41.548,223.513
		c19.671-18.616,32.944-43.64,47.341-66.281c16.296-25.626,33.067-51.041,48.843-77.003c-14.693,41.255-31.379,81.25-50.372,120.77
		c-0.145,0.3-0.109,0.578-0.051,0.841c-0.413,0.512-0.49,1.295,0.244,1.736c10.285,6.177,20.171,13.018,29.607,20.43
		C92.031,220.992,66.776,222.358,41.548,223.513z M120.201,222.502c-9.679-7.605-19.814-14.392-30.524-20.448
		c19.843-37.388,36.529-76.779,49.813-117.014C133.034,130.851,126.534,176.687,120.201,222.502z M246.172,223.696
		c-19.259-2.591-38.316,2.14-57.573,1.864c-5.286-23.249-11.071-46.518-17.565-69.588c-0.464-2.536-0.929-5.072-1.393-7.608
		c-0.169-0.924-0.656-1.483-1.264-1.767c-3.55-12.188-7.307-24.314-11.344-36.332c-0.395-2.304-0.826-4.601-1.208-6.908
		c-0.184-1.111-0.96-1.704-1.861-1.872c-3.35-9.612-6.821-19.175-10.549-28.625c0.017-0.296,0.043-0.595,0.06-0.89
		C171.727,125.766,208.619,176.081,246.172,223.696z M275.268,201.933c-1.321,0.321-3.999,0.968-5.321,0.29
		c-1.727-0.886,2.42-1.241,2.983-1.222c1.088,0.036,2.049,0.331,2.988,0.708C275.697,201.775,275.495,201.878,275.268,201.933z
		 M279.776,199.93c-0.036-0.136-0.063-0.277-0.206-0.39c-1.061-0.85-1.93-1.829-2.444-3.095c-0.288-0.707-0.599-1.636-0.475-2.42
		c0.182-1.143,1.328-2.028,2.177-0.875c0.642,0.871,0.783,2.494,1.067,3.501c0.231,0.818,0.474,1.608,0.769,2.383
		C280.335,199.299,280.044,199.603,279.776,199.93z"
                />
              </g>
            </svg>